<svg xmlns="http://www.w3.org/2000/svg" width="400" height="73.515" viewBox="0 0 400 73.515">
  <g id="Farmkart" transform="translate(-0.188 -0.248)">
    <path id="Path_108540" data-name="Path 108540" d="M172.3,32.4C182.965,20.735,189.966,4.9,190.049,4.565c-.417,0-26.921-2-42.173,11-.586.5-1.252,1.084-1.835,1.584-.333,3.751-.833,7.585-1.5,11.336,1.75-.333,3.418-.583,5.168-.75a39.569,39.569,0,0,1,13.586,1.417A65,65,0,0,1,172.3,32.4Z" transform="translate(209.386 6.102)" fill="#117938" fill-rule="evenodd"/>
    <path id="Path_108541" data-name="Path 108541" d="M164.17,2.119c-.333.25-23.922,14.92-31.34,35.507A82.617,82.617,0,0,0,129.745,48.8c.833.25,2.166.667,2.166.667l4.668-3.667a72.7,72.7,0,0,1,25.255-12.919A141.609,141.609,0,0,0,164.17,2.119Z" transform="translate(187.924 2.714)" fill="#ffbc00" fill-rule="evenodd"/>
    <path id="Path_108542" data-name="Path 108542" d="M133.385,29.85c4-3.167,17.168-12.5,32.756-13.92,18.67-1.75,40.507,16.42,40.843,16.67-.336.25-23.089,16.753-41.676,13.586C149.887,43.6,137.3,33.268,133.385,29.85Z" transform="translate(193.204 22.576)" fill="#975a3f" fill-rule="evenodd"/>
    <path id="Path_108543" data-name="Path 108543" d="M18.441,28.374l-3.917,32.59L12.273,68.3a7.7,7.7,0,0,1-2.334,3.834,6.368,6.368,0,0,1-4.418,1.334H.187L5.605,28.374l-2.584-.583a4.234,4.234,0,0,1-1.834-.917,2.214,2.214,0,0,1-.75-1.834,1.058,1.058,0,0,1,.083-.5l.667-5.168h5.5l.333-2.5a19.4,19.4,0,0,1,2.084-6.751,17.675,17.675,0,0,1,9.835-8.5A21.4,21.4,0,0,1,26.026.452a27.1,27.1,0,0,1,2.75.167c.834.167,1.667.333,2.5.583L30.11,7.787A1.622,1.622,0,0,1,28.943,9.2a5.469,5.469,0,0,1-1.917.333,7.323,7.323,0,0,0-5.168,1.75c-1.25,1.167-2.084,3.167-2.417,6l-.25,2.084h8.835l-1.167,8.918H18.441Z" transform="translate(0 0.296)" fill="#117938"/>
    <path id="Path_108544" data-name="Path 108544" d="M47.2,52.228h-7a5.212,5.212,0,0,1-2.084-.333,4.074,4.074,0,0,1-1.334-.834,2.54,2.54,0,0,1-.667-1.334,10.266,10.266,0,0,1-.167-1.667V44.977a23.275,23.275,0,0,1-6,5.835A12.931,12.931,0,0,1,22.7,52.895a12.489,12.489,0,0,1-4.584-.917,11.786,11.786,0,0,1-3.918-2.834,13.2,13.2,0,0,1-2.667-4.918,22.164,22.164,0,0,1-1-7,29.73,29.73,0,0,1,2.167-11.252,28.273,28.273,0,0,1,6.085-9.335A27.712,27.712,0,0,1,28.031,10.3,28.734,28.734,0,0,1,39.783,7.969a55.088,55.088,0,0,1,6.335.417,28.022,28.022,0,0,1,6.335,1.5ZM27.948,42.559a4.126,4.126,0,0,0,2.75-1.083,12.881,12.881,0,0,0,2.584-2.917,29.857,29.857,0,0,0,2.25-4.334,44.488,44.488,0,0,0,1.75-5.335l1.5-12.086h-.75A12.324,12.324,0,0,0,32.2,18.221a13.438,13.438,0,0,0-4.5,3.917A18.7,18.7,0,0,0,24.78,27.89a23.7,23.7,0,0,0-1,7,14.966,14.966,0,0,0,.334,3.584,8.132,8.132,0,0,0,.917,2.417,4.061,4.061,0,0,0,1.334,1.334A4.445,4.445,0,0,0,27.948,42.559Z" transform="translate(14.998 11.2)" fill="#117938"/>
    <path id="Path_108545" data-name="Path 108545" d="M28.18,52.08,33.432,8.321h6.751a5.111,5.111,0,0,1,3.167.917,3.9,3.9,0,0,1,1.167,3.084v5a22.437,22.437,0,0,1,5.5-6.835A9.76,9.76,0,0,1,56.1,8.071a7.7,7.7,0,0,1,3.5.834L57.27,20.99a11.034,11.034,0,0,0-4.084-.917,7.508,7.508,0,0,0-5.751,2.917c-1.667,1.917-3,5.084-4.084,9.419L41.016,52.08Z" transform="translate(40.604 11.348)" fill="#117938"/>
    <path id="Path_108546" data-name="Path 108546" d="M40.391,52.376,45.726,8.617h6.751a5.111,5.111,0,0,1,3.167.917,3.9,3.9,0,0,1,1.167,3.084V15.2a19.86,19.86,0,0,1,5.835-5.5,12.932,12.932,0,0,1,6.418-1.834,8.554,8.554,0,0,1,6.168,2.417c1.667,1.584,2.667,3.918,3.084,7a22.646,22.646,0,0,1,6.335-7.168,14.116,14.116,0,0,1,7.835-2.25A10.711,10.711,0,0,1,96.9,8.7a8.669,8.669,0,0,1,3.417,2.584,11.6,11.6,0,0,1,2.167,4.168,19.451,19.451,0,0,1,.75,5.668,11.745,11.745,0,0,1-.083,1.667c-.083.583-.083,1.167-.167,1.75L99.737,52.293H86.9l3.251-27.756c.083-.5.083-.917.167-1.334,0-.417.083-.75.083-1.167a5.309,5.309,0,0,0-.667-3,2.266,2.266,0,0,0-2-.834,5.344,5.344,0,0,0-2.5.667,8.455,8.455,0,0,0-2.251,2,18.826,18.826,0,0,0-2,3.167A39.713,39.713,0,0,0,79.4,28.2L76.566,52.126H63.646L66.9,24.37c.083-.5.083-.917.167-1.334,0-.417.083-.75.083-1.167a5.309,5.309,0,0,0-.667-3,2.266,2.266,0,0,0-2-.833,4.609,4.609,0,0,0-2.5.75,8.947,8.947,0,0,0-2.334,2.084,19.762,19.762,0,0,0-2,3.251,35.225,35.225,0,0,0-1.584,4.251L53.227,52.126H40.391Z" transform="translate(58.316 11.052)" fill="#117938"/>
    <path id="Path_108547" data-name="Path 108547" d="M88.05.248,83.716,35.672h.917a3.446,3.446,0,0,0,1.75-.334,4.587,4.587,0,0,0,1.334-1.25l9-12.336a4.482,4.482,0,0,1,1.75-1.584,5.075,5.075,0,0,1,2.334-.5h11.752L100.386,35.255a10.093,10.093,0,0,1-1.834,1.917,16.264,16.264,0,0,1-2.084,1.5,7.168,7.168,0,0,1,1.5,1.667,13.28,13.28,0,0,1,1.167,2.167l8.752,20.921H96.469a5.074,5.074,0,0,1-2.334-.5,3.54,3.54,0,0,1-1.417-1.667l-6.085-15.5a3.046,3.046,0,0,0-1-1.334,3.079,3.079,0,0,0-1.75-.333H82.549L80.216,63.427H67.3L75.048.331h13Z" transform="translate(97.342 0)" fill="#117938"/>
    <path id="Path_108548" data-name="Path 108548" d="M120.433,52.228h-7a5.21,5.21,0,0,1-2.084-.333,4.069,4.069,0,0,1-1.334-.834,2.538,2.538,0,0,1-.667-1.334,5.394,5.394,0,0,1-.167-1.667V44.977a23.278,23.278,0,0,1-6,5.835,12.932,12.932,0,0,1-7.252,2.084,12.491,12.491,0,0,1-4.584-.917,11.788,11.788,0,0,1-3.917-2.834,14.491,14.491,0,0,1-2.667-4.918,22.157,22.157,0,0,1-1-7,29.731,29.731,0,0,1,2.167-11.252,28.277,28.277,0,0,1,6.085-9.335,27.716,27.716,0,0,1,9.252-6.335,28.733,28.733,0,0,1,11.752-2.334,55.088,55.088,0,0,1,6.335.417,28.045,28.045,0,0,1,6.336,1.5Zm-19.254-9.669a4.127,4.127,0,0,0,2.751-1.083,12.88,12.88,0,0,0,2.584-2.917,29.857,29.857,0,0,0,2.251-4.334,44.488,44.488,0,0,0,1.75-5.335l1.5-12.086h-.75a12.324,12.324,0,0,0-5.835,1.417,13.435,13.435,0,0,0-4.5,3.917,18.7,18.7,0,0,0-2.917,5.751,23.7,23.7,0,0,0-1,7,14.979,14.979,0,0,0,.333,3.584,8.132,8.132,0,0,0,.917,2.417A4.058,4.058,0,0,0,99.6,42.226,4.443,4.443,0,0,0,101.179,42.559Z" transform="translate(121.221 11.2)" fill="#117938"/>
    <path id="Path_108549" data-name="Path 108549" d="M101.412,52.08l5.332-43.759H113.5a5.108,5.108,0,0,1,3.166.917,3.9,3.9,0,0,1,1.166,3.084v5a22.473,22.473,0,0,1,5.5-6.835,9.766,9.766,0,0,1,6.085-2.417,7.71,7.71,0,0,1,3.5.834L130.583,20.99a11.025,11.025,0,0,0-4.083-.917,7.505,7.505,0,0,0-5.751,2.917c-1.669,1.917-3,5.084-4.085,9.419L114.248,52.08Z" transform="translate(146.827 11.348)" fill="#117938"/>
    <path id="Path_108550" data-name="Path 108550" d="M116.787,49.979v-.75a6.812,6.812,0,0,1,.083-1.167,11.518,11.518,0,0,1,.25-2.084c.083-.833.25-2,.417-3.417l2.252-17.921h-3.5a1.891,1.891,0,0,1-1.333-.5,2.282,2.282,0,0,1-.583-1.584,5.146,5.146,0,0,1,.083-.75c.083-.5.083-.917.167-1.5.083-.5.083-1,.167-1.417a3.666,3.666,0,0,0,.083-.75l.167-1.167,6.585-1.334L125.29,4.969a2.718,2.718,0,0,1,2.833-2h7.084l-1.583,12.753h9.753l-1.086,8.918h-9.751l-2.085,17.17c-.167,1.167-.25,2.084-.333,2.751s-.167,1.167-.167,1.5a2.872,2.872,0,0,0-.083.75v.25a3.413,3.413,0,0,0,.583,2.084,2.056,2.056,0,0,0,1.835.834,3.689,3.689,0,0,0,1.083-.167,3.266,3.266,0,0,0,.75-.333,2.5,2.5,0,0,1,.667-.334,1.57,1.57,0,0,1,.667-.167,1.5,1.5,0,0,1,.916.25,3.593,3.593,0,0,1,.586.834l2.833,6.168a19.478,19.478,0,0,1-11.586,3.751,16.037,16.037,0,0,1-4.585-.667,11.989,11.989,0,0,1-3.5-2,8.5,8.5,0,0,1-2.252-3.168A8.367,8.367,0,0,1,116.787,49.979Z" transform="translate(165.624 3.947)" fill="#117938"/>
  </g>
</svg>
