<svg xmlns="http://www.w3.org/2000/svg" width="400" height="91.118" viewBox="0 0 400 91.118">
  <g id="Zedcrest" transform="translate(0.001)">
    <path id="Path_108551" data-name="Path 108551" d="M0,74.111a4.094,4.094,0,0,1,1.025-2.877L28.815,36.49H2.345A2.109,2.109,0,0,1,.006,34.149v-3.12a2.108,2.108,0,0,1,2.339-2.339H37.154a2.108,2.108,0,0,1,2.339,2.339v3.853a4.1,4.1,0,0,1-1.022,2.877L10.729,72.5H37.208a2.109,2.109,0,0,1,2.339,2.339v3.123A2.108,2.108,0,0,1,37.208,80.3H2.341A2.108,2.108,0,0,1,0,77.963ZM56.759,56.726a17.864,17.864,0,0,0,18.14,16c6.388,0,11.167-2.2,15.752-6.437a2.172,2.172,0,0,1,3.315-.049l1.806,1.708a2.091,2.091,0,0,1,.145,3.265c-5.17,5.56-11.46,9.17-20.772,9.17-16.435,0-27.455-11.8-27.455-26.433S59.051,28.7,74.413,28.7c15.067,0,25.747,10.229,25.747,24.126,0,.538-.049,1.17-.1,1.754a2.221,2.221,0,0,1-2.487,2.147ZM74.413,36.485c-8.437,0-15.555,4.83-17.31,12.877H90.845c-1.366-8.143-8.763-12.877-16.433-12.877m32.994,17.462c0-14.629,10.533-25.256,24.917-25.256,7.705,0,14.288,2.239,18.725,7.651V10.352a2.109,2.109,0,0,1,2.342-2.339h4.194a2.108,2.108,0,0,1,2.339,2.339V78.034a2.108,2.108,0,0,1-2.339,2.339H153.39a2.108,2.108,0,0,1-2.339-2.339V71.549a23.889,23.889,0,0,1-18.727,8.828c-14.386,0-24.917-11.8-24.917-26.433m9.022,0c0,10.192,7.46,18.433,17.408,18.433s17.212-8.241,17.212-18.433S144.029,36.5,133.837,36.5s-17.41,7.251-17.41,17.443m54.22,0c0-15.167,11.361-25.265,25.895-25.265,11.167,0,20.14,4.491,23.6,14.2.585,1.607-.344,2.632-2,2.632h-4.632a2.715,2.715,0,0,1-2.683-1.853c-2.391-5.216-7.462-7.141-13.654-7.141-8.585,0-17.506,5.778-17.506,17.431,0,11.7,9.361,18.479,18.529,18.479a18.672,18.672,0,0,0,14.777-7.216,2.287,2.287,0,0,1,3.268-.683l2,1.17a2.075,2.075,0,0,1,.83,3.221c-4.828,7.509-12.386,11.46-21.553,11.46-14,0-26.87-11.216-26.87-26.433M260.7,34.913c-.145,1.56-1.071,2-2.681,1.761a16.375,16.375,0,0,0-2.732-.194c-7.7,0-14.725,6.917-14.725,15.743l-.028,25.824a2.109,2.109,0,0,1-2.342,2.339H234a2.108,2.108,0,0,1-2.339-2.339l.026-47a2.109,2.109,0,0,1,2.341-2.339h4.194a2.109,2.109,0,0,1,2.341,2.339V37.6a19.574,19.574,0,0,1,16.384-8.924c.683,0,1.366,0,2,.047a2.122,2.122,0,0,1,2.1,2.585Zm13.214,21.813a17.862,17.862,0,0,0,18.14,16c6.386,0,11.165-2.2,15.75-6.437a2.175,2.175,0,0,1,3.317-.049l1.8,1.708a2.089,2.089,0,0,1,.145,3.265c-5.167,5.56-11.457,9.17-20.772,9.17-16.433,0-27.455-11.8-27.455-26.433S276.2,28.682,291.562,28.682c15.069,0,25.747,10.246,25.747,24.143,0,.538-.049,1.17-.1,1.754a2.22,2.22,0,0,1-2.487,2.147Zm17.651-20.234c-8.435,0-15.555,4.823-17.31,12.87h33.743c-1.364-8.143-9.691-12.868-16.433-12.868m36.36,31.4c1.022-1.219,2.145-1.219,3.315-.1a18.011,18.011,0,0,0,12.337,4.926c6.388,0,10.339-2.592,10.339-7.078,0-4.243-3.317-6.035-11.216-7.546-11.118-2.147-16.433-7.364-16.433-15.214,0-7.948,6.339-14,16.922-14,8.875,0,15.359,4.094,17.359,12.093.391,1.609-.489,2.585-2.1,2.585h-4.192c-1.415,0-2.1-.732-2.536-2.1-.975-2.924-3.757-4.924-7.9-4.924-5.219,0-8.681,2.681-8.681,6.484,0,3.609,3.413,6.585,10.435,8,11.6,2.292,17.214,6.377,17.214,14.762,0,8.533-6.877,14.587-18.629,14.587a22.583,22.583,0,0,1-17.457-7.7,2.371,2.371,0,0,1,0-3.317Zm57.691-4.828c0,6.386,2.732,9.509,9.85,9.509.634,0,1.366,0,2.1-.047A2.031,2.031,0,0,1,400,74.768v2.246a2.5,2.5,0,0,1-1.853,2.681,21.755,21.755,0,0,1-5.364.683c-10.339,0-16.044-5.462-16.044-17.216V36.492H368.5a2.109,2.109,0,0,1-2.339-2.342V31.03a2.108,2.108,0,0,1,2.339-2.339h8.241V18.546a2.447,2.447,0,0,1,2-2.585l4.243-1.17a1.873,1.873,0,0,1,2.632,2v11.9h12.035a2.11,2.11,0,0,1,2.342,2.339v3.123a2.109,2.109,0,0,1-2.342,2.339H385.613Z" transform="translate(0 10.731)" fill="#070e0f"/>
    <rect id="Rectangle_30406" data-name="Rectangle 30406" width="14.201" height="14.201" rx="1.012" transform="translate(286.383)" fill="#f48438"/>
    <rect id="Rectangle_30407" data-name="Rectangle 30407" width="14.201" height="14.201" rx="1.012" transform="translate(314.783)" fill="#18b0cc"/>
    <rect id="Rectangle_30408" data-name="Rectangle 30408" width="14.201" height="14.201" rx="1.012" transform="translate(343.185)" fill="#070e0f"/>
  </g>
</svg>
